<svg width="1203" height="1205" xmlns="http://www.w3.org/2000/svg" xmlns:xlink="http://www.w3.org/1999/xlink" xml:space="preserve" overflow="hidden"><g transform="translate(-2325 -71)"><path d="M2325 271.504C2325 160.769 2414.77 71.0002 2525.5 71.0002L3327.5 71.0002C3438.23 71.0002 3528 160.769 3528 271.504L3528 1075.5C3528 1186.23 3438.23 1276 3327.5 1276L2525.5 1276C2414.77 1276 2325 1186.23 2325 1075.5Z" fill="#7743A8" fill-rule="evenodd"/><path d="M2889.07 321 2890 321.02C2889.98 347.317 2889.99 373.614 2890 399.92L2889.05 400C2889.02 373.664 2888.95 347.327 2889.07 321Z" fill="#156082" fill-rule="evenodd"/><path d="M2949 321.293C3011.65 320.73 3074.33 321.173 3136.99 321.062L3137 321.957C3081.11 321.994 3025.22 321.929 2969.33 321.985 2962.54 321.902 2955.71 322.317 2949 321.293Z" fill="#156082" fill-rule="evenodd"/><path d="M2977.22 750.049C3049.48 749.971 3121.74 750 3194 750.04L3193.96 751C3121.64 750.941 3049.31 751.069 2977 750.932L2977.22 750.049Z" fill="#156082" fill-rule="evenodd"/><path d="M2905.03 171.891C2942.11 161.52 2980.68 157.52 3019.11 157 3028.86 157.95 3038.64 157.96 3048.42 158.7 3108 163.001 3166.7 180.122 3218.92 209.254 3231.34 217.655 3245.46 223.415 3256.98 233.176 3307.95 268.328 3349.99 315.702 3380.99 369.176 3402.72 406.929 3418.78 448.002 3427.58 490.695 3434.85 524.957 3438.55 560.2 3436.38 595.173 3435.67 657.217 3418.58 718.662 3389.28 773.256 3382.48 784.517 3375.66 795.768 3369.27 807.249 3358.34 821.289 3349.25 836.871 3336.58 849.482 3325.51 862.733 3313.26 874.924 3299.98 885.954 3287.63 898.205 3272.9 907.556 3259.19 918.127 3207.72 952.919 3149.32 978.021 3088.01 988.882 3052.74 995.083 3016.76 994.982 2981.1 992.932 2941.84 989.192 2902.97 980.161 2866.64 964.73 2847.39 957.24 2829.58 946.699 2811.71 936.498 2802.47 930.868 2794.26 923.757 2785.03 918.127 2744.72 887.324 2711.44 847.891 2686.1 804.038 2679.2 792.327 2673.4 779.996 2666.9 768.065 2666.28 768.146 2665.04 768.296 2664.42 768.366 2658.18 777.876 2654.5 788.817 2648.47 798.458 2596.25 899.585 2544.01 1000.67 2491.46 1101.66 2472.15 1139.79 2451.75 1177.36 2432.54 1215.55 2430.12 1221.1 2426.28 1226.02 2424.86 1232 2402.36 1217.06 2383 1197.56 2367.98 1175.13 2349.06 1146.79 2338.2 1113.51 2335 1079.7L2335 993.602C2338.25 991.242 2338.85 986.682 2341.42 983.642 2356.96 952.419 2373.33 921.587 2389.48 890.665 2408.92 851.712 2429.96 813.569 2449.48 774.656 2508.23 661.898 2566.39 548.859 2625.07 436.071 2647.45 394.258 2670.19 352.475 2697.87 313.862 2723.88 278.909 2755.1 247.427 2792.08 224.065 2826.6 200.763 2864.82 182.802 2905.03 171.891M2889.13 321.062C2889.01 347.394 2889.08 373.736 2889.11 400.078L2890.09 399.998C2959.76 400.158 3029.45 399.988 3099.13 400.078 3098.32 401.518 3096.7 404.399 3095.89 405.839 3025.26 517.907 2954.61 629.955 2884.17 742.144 2872.84 761.515 2869.94 787.827 2883.1 807.058 2894.58 822.43 2914.61 828.45 2933.08 829.07 3019.74 829.09 3106.41 829.12 3193.08 829.06 3193.18 803.068 3193.14 777.076 3193.1 751.094L3193.14 750.114C3121.15 750.074 3049.17 750.044 2977.18 750.124 2977.32 749.774 2977.6 749.094 2977.74 748.744 3048.4 636.676 3118.93 524.497 3189.41 412.309 3199.03 394.988 3204.08 373.846 3196.5 354.735 3193.32 349.144 3191.35 342.064 3185.56 338.644 3185.18 337.133 3184.63 335.723 3183.15 335.033 3170.5 323.772 3152.37 321.772 3136.12 322.042L3136.11 321.072C3073.69 321.192 3011.25 320.712 2948.84 321.322 2929.28 320.672 2909.67 321.202 2890.09 321.082L2889.13 321.062Z" stroke="#613915" stroke-width="18.3333" stroke-miterlimit="8" fill="#74D7EE" fill-rule="evenodd"/><path d="M2905.71 311.091C2925.3 311.211 2944.92 310.681 2964.5 311.331 2971.19 312.441 2978 311.991 2984.77 312.081 3040.48 312.021 3096.19 312.091 3151.91 312.051 3168.17 311.781 3186.32 313.78 3198.97 325.039 3200.45 325.729 3201 327.139 3201.38 328.649 3207.17 332.068 3209.15 339.147 3212.33 344.737 3219.91 363.844 3214.86 384.981 3205.23 402.299 3134.7 514.464 3064.12 626.62 2993.42 738.665 2993.28 739.015 2992.99 739.695 2992.85 740.045L2992.63 740.945C3064.72 741.085 3136.83 740.955 3208.93 741.015 3208.97 766.992 3209.01 792.978 3208.91 818.965 3122.18 819.025 3035.45 818.995 2948.73 818.975 2930.24 818.355 2910.21 812.336 2898.72 796.968 2885.54 777.74 2888.45 751.434 2899.79 732.066 2970.28 619.901 3040.97 507.875 3111.65 395.83 3112.46 394.39 3114.09 391.51 3114.9 390.071 3045.17 389.981 2975.43 390.151 2905.71 389.991 2905.7 363.684 2905.69 337.387 2905.71 311.091Z" stroke="#613915" stroke-width="18.3333" stroke-miterlimit="8" fill="#FFAFC8" fill-rule="evenodd"/></g></svg>